<?xml version="1.0" encoding="utf-8"?>
<!-- Generator: Adobe Illustrator 24.0.1, SVG Export Plug-In . SVG Version: 6.00 Build 0)  -->
<svg version="1.0" id="Layer_1" xmlns="http://www.w3.org/2000/svg" xmlns:xlink="http://www.w3.org/1999/xlink" x="0px" y="0px"
	 viewBox="0 0 80 80" style="enable-background:new 0 0 80 80;" xml:space="preserve">
<style type="text/css">
	.st0{fill-rule:evenodd;clip-rule:evenodd;fill:#6082BB;}
	.st1{fill:#F51FFF;}
	.st2{fill:#5EDF00;}
	.st3{fill:#FFF400;}
</style>
<rect id="rect4138" class="st0" width="80" height="80"/>
<path id="path3486" class="st1" d="M18.8,44.97c1.85,0,3.23-0.38,4.11-1.12c0.86-0.73,1.46-2,1.78-3.77
	c0.29-1.65,0.18-2.81-0.33-3.43c-0.52-0.64-1.65-0.96-3.36-0.96h-2.96l-1.64,9.28H18.8z M9.13,56.4c-0.14,0-0.27-0.07-0.35-0.18
	c-0.09-0.12-0.12-0.27-0.1-0.42l4.35-24.6c0.04-0.24,0.23-0.41,0.45-0.41h9.37c2.94,0,5.13,0.88,6.51,2.61
	c1.38,1.74,1.81,4.18,1.27,7.24c-0.22,1.25-0.6,2.41-1.13,3.44c-0.53,1.04-1.22,2-2.07,2.86c-1.01,1.04-2.16,1.8-3.41,2.25
	c-1.23,0.44-2.8,0.66-4.69,0.66h-3.79l-1.08,6.13c-0.04,0.24-0.23,0.41-0.45,0.41L9.13,56.4L9.13,56.4z"/>
<path id="path3494" class="st2" d="M42.17,49.86c-0.14,0-0.26-0.07-0.35-0.18c-0.09-0.12-0.12-0.27-0.1-0.42l1.9-10.88
	c0.18-1.04,0.14-1.78-0.13-2.09c-0.16-0.19-0.64-0.51-2.06-0.51H38l-2.39,13.68c-0.04,0.24-0.23,0.41-0.45,0.41H30.4
	c-0.14,0-0.26-0.07-0.35-0.18c-0.09-0.12-0.12-0.27-0.1-0.42l4.29-24.6c0.04-0.24,0.23-0.41,0.45-0.41h4.77
	c0.14,0,0.26,0.07,0.35,0.18c0.09,0.12,0.12,0.27,0.1,0.42l-1.04,5.94h3.7c2.82,0,4.73,0.55,5.84,1.69
	c1.13,1.16,1.49,3.02,1.05,5.52l-2,11.45c-0.04,0.24-0.23,0.41-0.45,0.41H42.17L42.17,49.86z"/>
<path id="path3502" class="st3" d="M58.24,44.97c1.92,0,3.36-0.38,4.26-1.12c0.9-0.73,1.52-2,1.84-3.77
	c0.3-1.65,0.19-2.81-0.34-3.43c-0.54-0.64-1.72-0.96-3.49-0.96h-3.07l-1.7,9.28H58.24z M48.2,56.4c-0.14,0-0.28-0.07-0.37-0.18
	c-0.09-0.12-0.13-0.27-0.1-0.42l4.51-24.6c0.04-0.24,0.24-0.41,0.47-0.41h9.73c3.06,0,5.33,0.88,6.76,2.61
	c1.44,1.74,1.88,4.18,1.32,7.24c-0.23,1.25-0.62,2.41-1.17,3.44c-0.55,1.04-1.27,2-2.15,2.86c-1.05,1.04-2.25,1.8-3.54,2.25
	c-1.27,0.44-2.91,0.66-4.87,0.66h-3.94l-1.12,6.13c-0.04,0.24-0.24,0.41-0.47,0.41L48.2,56.4L48.2,56.4z"/>
</svg>
